{"title":"The Set-Up (1949) HDTV 720p","uid":11932532,"size":1488364289,"categoryP":"video","categoryS":"movies","magnet":"?xt=urn:btih:0be1fecfbdca7fd3883c59f4e1671f38543e9382&amp;dn=The+Set-Up+%281949%29+HDTV+720p&amp;tr=udp%3A%2F%2Ftracker.openbittorrent.com%3A80&amp;tr=udp%3A%2F%2Fopen.demonii.com%3A1337&amp;tr=udp%3A%2F%2Ftracker.coppersurfer.tk%3A6969&amp;tr=udp%3A%2F%2Fexodus.desync.com%3A6969","seeders":3,"leechers":1,"uploader":"niarfe","files":1,"time":1431850418,"description":"The Set-Up (1949) &lt;a href=&quot;\nhttp://www.imdb.com/title/tt0041859&quot; rel=&quot;nofollow&quot; target=&quot;_NEW&quot;&gt;\nhttp://www.imdb.com/title/tt0041859&lt;/a&gt;\n\nThe Set-Up is the memorable, brutal story of washed-up boxer Stoker (Robert Ryan) as he fights the last fight of his career, a fight he is intended to lose. Directed with grim intensity by Robert Wise, and featuring a masterful, nuanced performance by Robert Ryan, the audience is taken into a nightmarish world where Ryan must face his own personal emotional demons as he battles with his own fears and searches for meaning in his life and his own personal integrity. Reminiscent of Raging Bull because of the intense realism of the boxing sequences, Ryan here shows himself to be one of the finest actors of the noir genre. Stoker, as portrayed by Ryan, is surrounded by parasites and hangers-on, but he, himself, has an unarticulated nobility that elevates his character to that of the seminal, existential hero. Ryan, perfectly suited for the role both in appearance and sensibility has never been finer. The Set-Up, because of its intense, unrelenting darkness and its emphasis on complex emotional themes is an unforgettable character study of a man on the edge, while at the same time an engrossing, deeply thoughtful examination of a man's battle for his own soul.\n\n\nGeneral\nUnique ID                                : 235183203040760095261902278473676692375 (0xB0EEA327189F0438B65776A6064F1B97)\nComplete name                            : 1949-The.Set-up.Hdtvx264.720p.Ac3.[DMMD].mkv\nFormat                                   : Matroska\nFormat version                           : Version 4 / Version 2\nFile size                                : 1.39 GiB\nDuration                                 : 1h 12mn\nOverall bit rate                         : 2 741 Kbps\nMovie name                               : -DMMD-\nEncoded date                             : UTC 2015-05-15 00:17:02\nWriting application                      : mkvmerge v7.8.0 ('River Man') 64bit built on Mar 27 2015 16:31:37\nWriting library                          : libebml v1.3.1 + libmatroska v1.4.2\nAttachements                             : Imagettteeeeeeeeeeee.bmp.jpg / Poster - Set-Up, The (1949)_09.jpg / Poster - Set-Up, The (1949)_04.jpg / The Set-Up (1949).jpg\n_STATISTICS_WRITING_APP                  : mkvmerge v7.8.0 ('River Man') 64bit built on Mar 27 2015 16:31:37\n_STATISTICS_WRITING_DATE_UTC             : 2015-05-15 00:17:02\n_STATISTICS_TAGS                         : BPS DURATION NUMBER_OF_FRAMES NUMBER_OF_BYTES\nDURATION                                 : 01:11:09.555000000\nNUMBER_OF_FRAMES                         : 618\nNUMBER_OF_BYTES                          : 28745\n\nVideo\nID                                       : 1\nFormat                                   : AVC\nFormat/Info                              : Advanced Video Codec\nFormat profile                           : &lt;a class=&quot;__cf_email__&quot; href=&quot;/cdn-cgi/l/email-protection&quot; data-cfemail=&quot;e9a1808e81a9a5ddc7d8&quot;&gt;[email&amp;#160;protected]&lt;/a&gt;&lt;script data-cfhash='f9e31' type=&quot;text/javascript&quot;&gt;\n/* &lt;![CDATA[ */!function(){try{var t=&quot;currentScript&quot;in document?document.currentScript:function(){for(var t=document.getElementsByTagName(&quot;script&quot;),e=t.length;e--;)if(t[e].getAttribute(&quot;data-cfhash&quot;))return t[e]}();if(t&amp;&amp;t.previousSibling){var e,r,n,i,c=t.previousSibling,a=c.getAttribute(&quot;data-cfemail&quot;);if(a){for(e=&quot;&quot;,r=parseInt(a.substr(0,2),16),n=2;a.length-n;n+=2)i=parseInt(a.substr(n,2),16)^r,e+=String.fromCharCode(i);e=document.createTextNode(e),c.parentNode.replaceChild(e,c)}t.parentNode.removeChild(t);}}catch(u){}}()/* ]]&gt; */&lt;/script&gt;\nFormat settings, CABAC                   : Yes\nFormat settings, ReFrames                : 11 frames\nCodec ID                                 : V_MPEG4/ISO/AVC\nDuration                                 : 1h 12mn\nBit rate                                 : 2 495 Kbps\nWidth                                    : 980 pixels\nHeight                                   : 720 pixels\nDisplay aspect ratio                     : 4:3\nFrame rate mode                          : Constant\nFrame rate                               : 23.976 fps\nColor space                              : YUV\nChroma subsampling                       : 4:2:0\nBit depth                                : 8 bits\nScan type                                : Progressive\nBits/(Pixel*Frame)                       : 0.147\nStream size                              : 1.26 GiB (91%)\nWriting library                          : x264 core 142 r2389kMod 956c8d8\nEncoding settings                        : cabac=1 / ref=11 / deblock=1:-3:-3 / analyse=0x3:0x133 / me=umh / subme=11 / psy=1 / fade_compensate=0.00 / psy_rd=1.00:0.00 / mixed_ref=1 / me_range=24 / chroma_me=1 / trellis=2 / 8x8dct=1 / cqm=0 / deadzone=21,11 / fast_pskip=0 / chroma_qp_offset=-2 / threads=6 / lookahead_threads=1 / sliced_threads=0 / nr=0 / decimate=0 / interlaced=0 / bluray_compat=0 / constrained_intra=0 / fgo=0 / bframes=8 / b_pyramid=2 / b_adapt=2 / b_bias=0 / direct=3 / weightb=1 / open_gop=0 / weightp=2 / keyint=250 / keyint_min=23 / scenecut=40 / intra_refresh=0 / rc=crf / mbtree=0 / crf=19.5000 / qcomp=0.65 / qpmin=0 / qpmax=69 / qpstep=4 / ip_ratio=1.40 / pb_ratio=1.20 / aq=1:0.50\nLanguage                                 : English\nDefault                                  : Yes\nForced                                   : No\n_STATISTICS_WRITING_APP                  : mkvmerge v7.8.0 ('River Man') 64bit built on Mar 27 2015 16:31:37\n_STATISTICS_WRITING_DATE_UTC             : 2015-05-15 00:17:02\n_STATISTICS_TAGS                         : BPS DURATION NUMBER_OF_FRAMES NUMBER_OF_BYTES\nDURATION                                 : 01:12:23.005000000\nNUMBER_OF_FRAMES                         : 104128\nNUMBER_OF_BYTES                          : 1380388184\n\nAudio\nID                                       : 2\nFormat                                   : AC-3\nFormat/Info                              : Audio Coding 3\nMode extension                           : CM (complete main)\nFormat settings, Endianness              : Big\nCodec ID                                 : A_AC3\nDuration                                 : 1h 12mn\nBit rate mode                            : Constant\nBit rate                                 : 192 Kbps\nChannel(s)                               : 1 channel\nChannel positions                        : Front: C\nSampling rate                            : 48.0 KHz\nBit depth                                : 16 bits\nCompression mode                         : Lossy\nDelay relative to video                  : 100ms\nStream size                              : 99.4 MiB (7%)\nLanguage                                 : English\nDefault                                  : Yes\nForced                                   : No\n\nText #1\nID                                       : 3\nFormat                                   : UTF-8\nCodec ID                                 : S_TEXT/UTF8\nCodec ID/Info                            : UTF-8 Plain Text\nLanguage                                 : Spanish\nDefault                                  : No\nForced                                   : No\n\nText #2\nID                                       : 4\nFormat                                   : UTF-8\nCodec ID                                 : S_TEXT/UTF8\nCodec ID/Info                            : UTF-8 Plain Text\nLanguage                                 : English\nDefault                                  : No\nForced                                   : No\n\nMenu\n00:00:00.000                             : en:Chapter 1\n00:01:09.500                             : en:Chapter 2\n00:07:11.167                             : en:Chapter 3\n00:12:26.333                             : en:Chapter 4\n00:15:07.533                             : en:Chapter 5\n00:19:53.200                             : en:Chapter 6\n00:24:19.833                             : en:Chapter 7\n00:28:14.667                             : en:Chapter 8\n00:30:55.167                             : en:Chapter 9\n00:33:32.700                             : en:Chapter 10\n00:37:11.167                             : en:Chapter 11\n00:42:03.034                             : en:Chapter 12\n00:46:38.834                             : en:Chapter 13\n00:51:42.201                             : en:Chapter 14\n00:52:54.501                             : en:Chapter 15\n00:56:36.335                             : en:Chapter 16\n00:59:20.202                             : en:Chapter 17\n01:02:13.169                             : en:Chapter 18\n01:07:17.702                             : en:Chapter 19\n01:11:36.502                             : en:Chapter 20","torrent":{"xt":"urn:btih:0be1fecfbdca7fd3883c59f4e1671f38543e9382","amp;dn":"The+Set-Up+%281949%29+HDTV+720p","amp;tr":["udp%3A%2F%2Ftracker.openbittorrent.com%3A80","udp%3A%2F%2Fopen.demonii.com%3A1337","udp%3A%2F%2Ftracker.coppersurfer.tk%3A6969","udp%3A%2F%2Fexodus.desync.com%3A6969"],"infoHash":"0be1fecfbdca7fd3883c59f4e1671f38543e9382","infoHashBuffer":{"type":"Buffer","data":[11,225,254,207,189,202,127,211,136,60,89,244,225,103,31,56,84,62,147,130]},"announce":[],"urlList":[]}}